<svg width="567" height="322" xmlns="http://www.w3.org/2000/svg" xmlns:xlink="http://www.w3.org/1999/xlink" overflow="hidden"><defs><clipPath id="clip0"><rect x="30" y="22" width="567" height="322"/></clipPath></defs><g clip-path="url(#clip0)" transform="translate(-30 -22)"><path d="M126.5 82.5001 126.5 310.876" stroke="#4472C4" stroke-width="0.666667" stroke-miterlimit="8" fill="none" fill-rule="evenodd"/><path d="M126.5 23.5001 126.5 310.35" stroke="#000000" stroke-width="1.33333" stroke-miterlimit="8" fill="none" fill-rule="evenodd"/><path d="M126.5 309.5 482.294 309.5" stroke="#000000" stroke-width="1.33333" stroke-miterlimit="8" fill="none" fill-rule="evenodd"/><path d="M0 3.5C-3.8194e-16 1.567 1.34315 -4.45597e-16 3 -8.91193e-16 4.65685-1.78239e-15 6 1.567 6 3.5 6 5.433 4.65685 7 3 7 1.34315 7-1.9097e-15 5.433 0 3.5Z" stroke="#AE5A21" stroke-width="1.33333" stroke-miterlimit="8" fill="#ED7D31" fill-rule="evenodd" transform="matrix(1 0 0 -1 207.5 132.5)"/><path d="M0 0 266.986 216.907" stroke="#4472C4" stroke-width="1.33333" stroke-miterlimit="8" stroke-dasharray="5.33333 4" fill="none" fill-rule="evenodd" transform="matrix(1 0 0 -1 126.5 291.407)"/><path d="M0 3.5C-3.18283e-16 1.567 1.11929 -4.45597e-16 2.5 -8.91193e-16 3.88071-1.78239e-15 5 1.567 5 3.5 5 5.433 3.88071 7 2.5 7 1.11929 7-1.59142e-15 5.433 0 3.5Z" stroke="#AE5A21" stroke-width="1.33333" stroke-miterlimit="8" fill="#ED7D31" fill-rule="evenodd" transform="matrix(1 0 0 -1 171.5 213.5)"/><path d="M0 3.5C-3.8194e-16 1.567 1.34315 -4.45597e-16 3 -8.91193e-16 4.65685-1.78239e-15 6 1.567 6 3.5 6 5.433 4.65685 7 3 7 1.34315 7-1.9097e-15 5.433 0 3.5Z" stroke="#AE5A21" stroke-width="1.33333" stroke-miterlimit="8" fill="#ED7D31" fill-rule="evenodd" transform="matrix(1 0 0 -1 225.5 281.5)"/><path d="M0 3C-3.8194e-16 1.34315 1.34315 -3.8194e-16 3 -7.6388e-16 4.65685-1.52776e-15 6 1.34315 6 3 6 4.65685 4.65685 6 3 6 1.34315 6-1.9097e-15 4.65685 0 3Z" stroke="#AE5A21" stroke-width="1.33333" stroke-miterlimit="8" fill="#ED7D31" fill-rule="evenodd" transform="matrix(1 0 0 -1 266.5 199.5)"/><path d="M0 3.5C-3.8194e-16 1.567 1.34315 -4.45597e-16 3 -8.91193e-16 4.65685-1.78239e-15 6 1.567 6 3.5 6 5.433 4.65685 7 3 7 1.34315 7-1.9097e-15 5.433 0 3.5Z" stroke="#AE5A21" stroke-width="1.33333" stroke-miterlimit="8" fill="#ED7D31" fill-rule="evenodd" transform="matrix(1 0 0 -1 258.5 140.5)"/><path d="M0 3.5C-3.8194e-16 1.567 1.34315 -4.45597e-16 3 -8.91193e-16 4.65685-1.78239e-15 6 1.567 6 3.5 6 5.433 4.65685 7 3 7 1.34315 7-1.9097e-15 5.433 0 3.5Z" stroke="#AE5A21" stroke-width="1.33333" stroke-miterlimit="8" fill="#ED7D31" fill-rule="evenodd" transform="matrix(1 0 0 -1 329.5 174.5)"/><path d="M0 3.5C-3.8194e-16 1.567 1.34315 -4.45597e-16 3 -8.91193e-16 4.65685-1.78239e-15 6 1.567 6 3.5 6 5.433 4.65685 7 3 7 1.34315 7-1.9097e-15 5.433 0 3.5Z" stroke="#AE5A21" stroke-width="1.33333" stroke-miterlimit="8" fill="#ED7D31" fill-rule="evenodd" transform="matrix(1 0 0 -1 374.5 125.5)"/><path d="M0 3C-3.8194e-16 1.34315 1.34315 -3.8194e-16 3 -7.6388e-16 4.65685-1.52776e-15 6 1.34315 6 3 6 4.65685 4.65685 6 3 6 1.34315 6-1.9097e-15 4.65685 0 3Z" stroke="#AE5A21" stroke-width="1.33333" stroke-miterlimit="8" fill="#ED7D31" fill-rule="evenodd" transform="matrix(1 0 0 -1 321.5 88.5001)"/><path d="M228 207 228 275.105" stroke="#000000" stroke-width="2" stroke-miterlimit="8" stroke-dasharray="8 6" fill="none" fill-rule="evenodd"/><path d="M210 132 210 222.699" stroke="#000000" stroke-width="2" stroke-miterlimit="8" stroke-dasharray="8 6" fill="none" fill-rule="evenodd"/><path d="M173 215 173 252.788" stroke="#000000" stroke-width="2" stroke-miterlimit="8" stroke-dasharray="8 6" fill="none" fill-rule="evenodd"/><path d="M260 141 260 178.788" stroke="#000000" stroke-width="2" stroke-miterlimit="8" stroke-dasharray="8 6" fill="none" fill-rule="evenodd"/><path d="M332 125 332 162.788" stroke="#000000" stroke-width="2" stroke-miterlimit="8" stroke-dasharray="8 6" fill="none" fill-rule="evenodd"/><path d="M377 88 377 118.018" stroke="#000000" stroke-width="2" stroke-miterlimit="8" stroke-dasharray="8 6" fill="none" fill-rule="evenodd"/><path d="M324 88 324 127.711" stroke="#000000" stroke-width="2" stroke-miterlimit="8" stroke-dasharray="8 6" fill="none" fill-rule="evenodd"/><path d="M269 176 269 195.289" stroke="#000000" stroke-width="2" stroke-miterlimit="8" stroke-dasharray="8 6" fill="none" fill-rule="evenodd"/><text font-family="Arial,Arial_MSFontService,sans-serif" font-weight="400" font-size="16" transform="translate(234.244 330)">Independent variable (X)</text><text font-family="Arial,Arial_MSFontService,sans-serif" font-weight="400" font-size="16" transform="matrix(-1.83697e-16 -1 1 -1.83697e-16 119.263 220)">Dependent variable (y)</text><path d="M363.5 188.5 401.704 188.5" stroke="#4472C4" stroke-width="1.33333" stroke-miterlimit="8" stroke-dasharray="5.33333 4" fill="none" fill-rule="evenodd"/><text font-family="Arial,Arial_MSFontService,sans-serif" font-weight="400" font-size="13" transform="translate(408.539 193)">Regression <tspan font-size="13" x="70.8333" y="0">line (predicted y)</tspan></text><path d="M0 3.5C-3.8194e-16 1.567 1.34315 -4.45597e-16 3 -8.91193e-16 4.65685-1.78239e-15 6 1.567 6 3.5 6 5.433 4.65685 7 3 7 1.34315 7-1.9097e-15 5.433 0 3.5Z" stroke="#AE5A21" stroke-width="1.33333" stroke-miterlimit="8" fill="#ED7D31" fill-rule="evenodd" transform="matrix(1 0 0 -1 393.5 213.5)"/><text font-family="Arial,Arial_MSFontService,sans-serif" font-weight="400" font-size="13" transform="translate(407.019 213)">Actual <tspan font-size="13" x="40.5" y="0">data (actual y)</tspan></text><path d="M366 236 404.204 236" stroke="#000000" stroke-width="2" stroke-miterlimit="8" stroke-dasharray="8 6" fill="none" fill-rule="evenodd"/><text font-family="Arial,Arial_MSFontService,sans-serif" font-weight="400" font-size="13" transform="translate(408.539 241)">Residuals (error) <tspan font-size="13" x="0" y="16">(actual y </tspan><tspan font-size="13" x="53.8333" y="16">-</tspan><tspan font-size="13" x="62" y="16">predicted y)</tspan><tspan font-size="13" x="-350.822" y="56">y</tspan>-intercept <tspan font-size="13" x="-327.988" y="72">(a)</tspan><tspan font-size="13" x="-13.5093" y="-171">y = </tspan><tspan font-size="13" x="8.32401" y="-171">a+bX+ε</tspan></text><path d="M234 201 312.656 202.639" stroke="#A5A5A5" stroke-width="2" stroke-miterlimit="8" fill="none" fill-rule="evenodd"/><path d="M313 139 313 202.927" stroke="#A5A5A5" stroke-width="2" stroke-miterlimit="8" fill="none" fill-rule="evenodd"/><text font-family="Arial,Arial_MSFontService,sans-serif" font-weight="400" font-size="11" transform="translate(288.421 213)">ΔX<tspan font-size="11" x="28.2546" y="-17">Δy</tspan></text><path d="M368 274 398.373 274" stroke="#A5A5A5" stroke-width="2" stroke-miterlimit="8" fill="none" fill-rule="evenodd"/><text font-family="Arial,Arial_MSFontService,sans-serif" font-weight="400" font-size="13" transform="translate(406.645 278)">Slope (b=<tspan font-size="13" x="57.1667" y="0">Δy</tspan><tspan font-size="13" x="76.3333" y="0">/ ΔX)</tspan></text></g></svg>